<svg version="1.1" id="Layer_1" xmlns="http://www.w3.org/2000/svg" xmlns:xlink="http://www.w3.org/1999/xlink" x="0px" y="0px"
	 width="100%" viewBox="0 0 512 512" enable-background="new 0 0 512 512" xml:space="preserve">
<path fill="#FD0B3F" opacity="1.000000" stroke="none" 
	d="
M513.000000,75.000000 
	C513.000000,195.022644 513.000000,315.045288 512.684204,435.230133 
	C511.900177,438.107544 511.744080,440.922943 510.910614,443.520996 
	C506.868530,456.120331 501.417053,468.169128 492.724030,478.174683 
	C486.007202,485.905609 479.344208,494.072632 469.746674,498.655823 
	C461.431793,502.626556 452.958649,506.264954 444.610321,510.167572 
	C443.260468,510.798523 442.196259,512.040466 441.000000,513.000000 
	C318.644043,513.000000 196.288055,513.000000 73.812691,512.720215 
	C69.979904,510.946442 66.319733,509.299591 62.544022,507.984497 
	C44.952831,501.857300 31.121227,490.669098 19.710800,476.250366 
	C12.141077,466.684967 6.750658,455.992340 3.527147,444.194733 
	C3.197863,442.989624 1.866398,442.058350 0.999994,441.000000 
	C1.000000,318.977356 1.000000,196.954727 1.252858,74.856773 
	C2.013737,73.845154 2.719514,72.964142 2.999193,71.963982 
	C5.802526,61.939018 9.774429,52.465221 16.122025,43.776611 
	C16.538910,43.024426 16.757307,42.486729 16.985905,41.976246 
	C16.996105,42.003460 16.938681,41.994457 17.149086,41.856735 
	C17.571550,41.461494 17.783607,41.203976 17.999798,40.974770 
	C18.003933,41.003078 17.949898,40.984245 18.248814,40.850338 
	C19.019396,39.784935 19.491062,38.853436 19.969387,37.955544 
	C19.976048,37.989155 19.907986,37.997116 20.121065,37.850121 
	C20.555338,37.440014 20.776529,37.176903 20.999344,36.955383 
	C21.000965,36.996975 20.917782,37.000202 21.124403,36.845242 
	C21.553801,36.428574 21.776577,36.166866 21.994818,35.947258 
	C21.990282,35.989357 21.906099,35.980156 22.181986,35.833832 
	C22.705572,34.958523 22.953272,34.229530 23.233162,33.381691 
	C23.265354,33.262844 23.502365,33.195972 23.883461,33.306587 
	C25.545126,33.206997 27.329121,33.463020 28.025154,32.711464 
	C32.801655,27.553934 37.350327,22.185406 41.977417,16.917877 
	C41.982471,16.950932 41.915604,16.949667 42.249306,16.918308 
	C43.379658,16.232645 44.176308,15.578340 44.984589,14.952290 
	C44.996223,14.980545 44.936707,14.966667 45.226025,14.895755 
	C46.015942,14.516434 46.516537,14.208024 47.008209,13.941867 
	C46.999287,13.984119 46.914806,13.966156 47.199242,13.885269 
	C47.975071,13.490047 48.466469,13.175710 49.111710,12.549781 
	C56.501682,9.489658 63.766167,6.811930 70.950882,3.934978 
	C72.451691,3.334011 73.657982,1.997534 75.000000,1.000000 
	C194.689316,1.000000 314.378632,1.000000 434.280823,1.369015 
	C434.998749,2.135207 435.469971,2.824025 436.013733,2.887043 
	C450.651489,4.583520 463.327148,10.626719 475.055420,19.417490 
	C493.443634,33.200085 505.378052,51.072601 511.061920,73.259277 
	C511.241180,73.959091 512.333374,74.425034 513.000000,75.000000 
M425.341217,269.116669 
	C434.322388,272.509491 437.239166,279.454468 436.763062,288.457611 
	C436.675751,290.108673 437.298553,291.842102 437.001709,293.426636 
	C436.569183,295.735413 436.261017,298.654785 434.741272,300.067291 
	C429.198181,305.219025 423.012177,309.672241 417.367462,314.722870 
	C407.618439,323.445862 396.461426,325.187317 383.851624,323.357330 
	C376.866455,322.343567 371.842957,319.304230 367.324341,314.327972 
	C365.662964,312.498322 362.961487,311.652161 361.091797,309.962036 
	C359.113281,308.173523 356.553772,306.132294 356.051086,303.810974 
	C355.244110,300.084473 355.668213,296.012787 356.034912,292.130737 
	C356.483826,287.377655 350.921112,274.589325 347.017365,272.226044 
	C344.644012,270.789215 342.636139,271.054077 342.233704,274.021118 
	C341.569366,278.919189 341.024780,283.870941 340.968994,288.806152 
	C340.862854,298.194061 341.301117,307.587982 341.202240,316.976166 
	C341.123047,324.492981 342.688416,331.332733 348.680084,336.249390 
	C350.190063,337.488495 353.927063,338.311401 354.977783,337.402710 
	C358.897797,334.012695 363.256317,333.918762 367.672089,334.699951 
	C372.069183,335.477814 376.390198,336.877594 380.622009,338.355713 
	C388.323700,341.045807 395.983398,341.032990 403.664825,338.537415 
	C410.468872,336.326904 417.233521,333.994537 424.006470,331.689178 
	C428.003510,330.328674 432.907227,329.925171 431.891388,323.980469 
	C434.371033,323.980469 436.932648,324.743652 437.804138,323.853027 
	C442.452301,319.102875 446.677734,313.939087 450.816620,309.185730 
	C448.285858,307.116119 446.816498,305.914459 445.347137,304.712830 
	C447.430817,303.837830 449.514496,302.962830 451.932892,301.947296 
	C453.153717,292.493927 456.324158,284.957703 451.319183,273.696228 
	C447.772247,265.715546 442.474945,258.812256 435.000671,254.313004 
	C428.741943,250.545441 422.253235,246.323242 414.117645,248.243332 
	C412.922699,248.525345 411.511383,247.860550 410.195526,247.665558 
	C404.170197,246.772659 398.165344,245.387009 392.111725,245.120834 
	C382.477234,244.697205 375.252869,240.002197 369.586060,232.967453 
	C365.065369,227.355484 366.217926,220.464386 367.169434,213.744064 
	C367.933716,208.346191 372.129028,207.187485 375.964966,205.358551 
	C378.219025,204.283798 380.474365,203.211121 382.742889,202.167404 
	C390.183289,198.744156 397.668030,197.907761 405.461090,201.231125 
	C408.016174,202.320740 411.074371,202.218536 413.649048,203.277542 
	C416.213409,204.332291 419.444702,205.602036 420.663544,207.752426 
	C424.562531,214.631271 427.662567,221.962830 431.073486,229.118454 
	C432.753357,232.642517 434.704163,236.612549 439.126617,236.090118 
	C443.889832,235.527405 442.866119,230.792160 443.049835,227.583832 
	C443.324738,222.781647 443.099091,217.928070 442.762115,213.119064 
	C442.289276,206.371872 441.608063,199.635132 440.823578,192.916382 
	C440.576538,190.800812 439.054321,188.688904 439.262451,186.694977 
	C439.727692,182.237381 436.640350,181.361130 433.701935,180.398071 
	C430.825012,179.455185 428.082092,178.982407 425.767395,182.292786 
	C424.841064,183.617661 422.017609,184.196213 420.084564,184.142761 
	C407.638062,183.798706 395.194458,182.742752 382.759613,182.869553 
	C377.489410,182.923309 372.241058,185.268570 366.989410,186.598602 
	C366.693237,186.673615 366.443726,186.972443 366.195984,187.193436 
	C362.480225,190.507965 358.548065,193.616394 355.118927,197.205276 
	C351.824799,200.652832 347.131226,203.674789 349.116608,209.808624 
	C349.282623,210.321503 348.222015,211.138702 347.976898,211.894180 
	C347.126526,214.515839 345.769684,217.158081 345.706512,219.818634 
	C345.413696,232.148987 352.269836,241.579636 360.294159,249.536423 
	C364.627533,253.833359 371.440216,256.481720 377.590759,257.913788 
	C389.729736,260.740234 402.223816,262.006531 414.488129,264.351715 
	C418.056091,265.034027 421.342682,267.187653 425.341217,269.116669 
M217.869385,196.482941 
	C218.919983,199.008881 220.729980,201.490128 220.881775,204.068970 
	C221.378418,212.506744 221.077133,220.988220 221.433228,229.438126 
	C222.488297,254.473450 223.711472,279.501678 224.864563,304.532898 
	C224.879837,304.864349 224.850098,305.199493 224.820969,305.531128 
	C224.257782,311.944855 222.675659,313.925751 216.369492,315.451019 
	C210.591019,316.848694 205.885223,319.661987 202.866852,324.903748 
	C198.838425,331.899597 202.199097,339.160370 210.233444,339.223145 
	C221.476501,339.311035 232.728928,338.276276 243.976257,337.700226 
	C247.947800,337.496826 251.963913,336.730347 255.875168,337.104431 
	C262.480896,337.736298 269.007141,339.160797 275.592712,340.062744 
	C277.839447,340.370483 280.194336,340.345490 282.447144,340.058807 
	C287.335999,339.436554 292.173248,338.400146 297.065338,337.815186 
	C300.853180,337.362244 304.693085,337.352051 308.508301,337.119476 
	C314.980774,336.724915 319.178284,331.457703 320.962708,327.138519 
	C323.458130,321.098389 322.949951,313.662628 323.017517,306.817017 
	C323.087036,299.774017 321.962616,292.720642 322.003601,285.675537 
	C322.036072,280.092316 319.333832,275.266113 314.766571,274.690857 
	C308.474274,273.898376 305.009308,276.322815 304.317932,282.951843 
	C303.892975,287.026215 304.524750,291.227661 304.851654,295.358643 
	C305.166016,299.330933 305.892731,303.276886 306.078461,307.251190 
	C306.248016,310.879730 304.662292,313.949402 301.094391,315.125366 
	C292.656036,317.906555 284.232697,319.660614 275.149811,317.192169 
	C270.384674,315.897095 264.906097,315.737091 260.035828,316.628204 
	C249.798889,318.501434 245.928879,316.187958 243.787308,306.014221 
	C241.435577,294.842163 244.136566,283.473877 241.165421,272.103790 
	C239.007401,263.845398 240.743866,254.569321 240.743866,245.746994 
	C240.299500,245.836945 239.855148,245.926895 239.410782,246.016846 
	C238.150909,244.992111 236.891037,243.967392 235.631149,242.942642 
	C237.183929,241.564133 238.736694,240.185623 240.170456,238.912766 
	C240.866776,231.185883 241.577164,223.302765 242.194077,216.457001 
	C240.176285,214.385925 238.800949,212.974258 237.425613,211.562607 
	C239.322861,210.493530 241.220108,209.424469 243.402527,208.194702 
	C243.338608,207.622574 243.201553,206.467804 243.081650,205.311249 
	C242.301361,197.785309 242.836487,196.891327 250.228073,195.824615 
	C254.494659,195.208878 258.842590,195.128021 263.158508,194.890640 
	C267.857178,194.632217 273.321350,184.289978 270.805573,180.289612 
	C270.560760,179.900360 270.080292,179.581497 269.639191,179.404953 
	C261.235596,176.042053 253.235382,170.787430 243.419586,174.401505 
	C241.485611,175.113556 239.148407,174.886688 237.002853,174.838699 
	C230.462387,174.692474 223.889648,172.436172 217.394348,175.391296 
	C216.450439,175.820724 215.079803,175.544250 213.961090,175.321198 
	C203.837570,173.302856 203.140167,174.186554 198.456512,183.248260 
	C195.836487,188.317352 198.105789,191.804077 200.613998,194.709747 
	C201.993195,196.307526 206.076431,195.659378 208.952026,195.851761 
	C211.692490,196.035110 214.447922,195.994827 217.869385,196.482941 
M95.599449,176.441055 
	C89.635780,176.522171 83.641472,177.017822 77.716187,176.579773 
	C70.261551,176.028625 66.333611,177.637970 63.323792,184.433395 
	C61.926189,187.588806 60.584496,191.103104 60.555599,194.466202 
	C60.477844,203.516602 61.102779,212.573990 61.506645,221.626007 
	C61.542351,222.426346 62.131165,223.190491 62.239014,224.001251 
	C62.596249,226.686798 62.664307,229.425262 63.219826,232.064163 
	C63.519157,233.486084 64.285095,235.389954 65.387909,235.905609 
	C66.581116,236.463486 69.413322,236.149078 69.797997,235.365005 
	C71.899834,231.080978 74.364182,226.657639 74.993423,222.048660 
	C75.777626,216.304642 74.869225,210.334015 74.743324,204.460129 
	C74.597786,197.669708 77.462265,193.380875 83.800217,191.099762 
	C93.054749,187.768921 102.262741,189.144562 111.200783,192.184540 
	C112.946129,192.778168 114.770782,195.802170 114.937874,197.838211 
	C115.329567,202.611023 114.626083,207.463058 114.569061,212.285446 
	C114.435822,223.551834 114.334000,234.820221 114.403603,246.086639 
	C114.431213,250.555527 115.200180,255.022888 115.173599,259.488220 
	C115.142715,264.678558 112.439545,269.951508 116.029182,275.007019 
	C116.434273,275.577515 115.768654,276.886139 115.644943,277.858246 
	C115.208931,281.284302 114.410049,284.718719 114.462379,288.139038 
	C114.533485,292.786835 115.382164,297.416901 115.678299,302.068481 
	C116.100075,308.693726 112.402061,314.840973 107.584442,315.972382 
	C101.573143,317.384125 95.015022,315.933289 90.108673,322.371185 
	C88.052773,325.068848 86.019394,326.984100 86.065353,330.413055 
	C86.116501,334.229401 88.906914,335.839905 91.937653,336.078735 
	C98.696495,336.611298 105.545479,337.126007 112.279388,336.615204 
	C126.507172,335.535919 140.680725,333.754028 154.885391,332.350098 
	C158.999924,331.943420 161.724457,328.387299 162.396225,322.397247 
	C162.901520,317.891724 159.960495,316.519287 156.495590,315.871399 
	C153.733841,315.355011 150.879303,315.231903 148.059586,315.147858 
	C139.703537,314.898773 136.923599,312.559479 135.062531,304.282196 
	C134.634933,302.380371 133.393341,300.637085 133.105331,298.733215 
	C132.368820,293.864899 131.939941,288.949005 131.469040,284.044373 
	C131.443741,283.780945 132.321365,283.520996 132.504242,283.130798 
	C133.101852,281.855804 134.161377,280.439392 133.992447,279.223328 
	C133.144684,273.120361 135.340256,266.504913 130.991135,260.934235 
	C130.519684,260.330383 130.976913,259.005615 130.994568,258.015106 
	C131.138931,249.918869 131.499893,241.818985 131.365601,233.727341 
	C131.216782,224.760956 130.418839,215.804855 130.293152,206.838821 
	C130.230835,202.394028 129.474258,196.548309 131.866623,193.847610 
	C134.666489,190.686920 140.507614,190.110855 145.114349,188.688660 
	C150.531769,187.016205 155.985397,187.010620 161.171158,189.633087 
	C166.389450,192.272003 167.497543,195.663132 164.339798,200.557220 
	C161.702515,204.644638 161.713577,208.467346 163.531921,212.829193 
	C165.052658,216.477112 165.786407,220.445938 167.082809,224.198685 
	C167.497025,225.397751 168.564377,226.385559 169.390106,227.424576 
	C170.486893,228.804596 172.189346,229.971619 172.665787,231.526169 
	C174.119247,236.268661 176.341858,237.171295 179.647675,233.511002 
	C181.330688,231.647537 183.178329,228.945404 183.125549,226.664612 
	C182.821884,213.541718 182.144943,200.419250 181.221725,187.322922 
	C180.851852,182.076141 177.450806,178.728104 172.157806,178.211411 
	C162.919464,177.309586 153.539551,175.565445 144.408875,176.359085 
	C128.368942,177.753281 112.455452,177.925888 95.599449,176.441055 
z"/>
<path fill="#000000" opacity="1.000000" stroke="none" 
	d="
M513.000000,74.531342 
	C512.333374,74.425034 511.241180,73.959091 511.061920,73.259277 
	C505.378052,51.072601 493.443634,33.200085 475.055420,19.417490 
	C463.327148,10.626719 450.651489,4.583520 436.013733,2.887043 
	C435.469971,2.824025 434.998749,2.135207 434.746857,1.369015 
	C460.924957,1.000000 486.849884,1.000000 513.000000,1.000000 
	C513.000000,25.353765 513.000000,49.708225 513.000000,74.531342 
z"/>
<path fill="#000000" opacity="1.000000" stroke="none" 
	d="
M74.531342,1.000000 
	C73.657982,1.997534 72.451691,3.334011 70.950882,3.934978 
	C63.766167,6.811930 56.501682,9.489658 48.800079,12.605946 
	C47.861347,13.304521 47.388077,13.635338 46.914806,13.966156 
	C46.914806,13.966156 46.999287,13.984119 46.688717,13.984970 
	C45.897667,14.312770 45.417187,14.639718 44.936707,14.966667 
	C44.936707,14.966667 44.996223,14.980545 44.659492,14.996470 
	C43.520374,15.658154 42.717991,16.303911 41.915604,16.949669 
	C41.915604,16.949667 41.982471,16.950932 41.624123,16.960608 
	C35.344635,22.378847 29.423500,27.787411 23.502365,33.195972 
	C23.502365,33.195972 23.265354,33.262844 22.994549,33.563118 
	C22.451195,34.568981 22.178648,35.274570 21.906099,35.980156 
	C21.906099,35.980156 21.990282,35.989357 21.731892,36.035080 
	C21.288263,36.387272 21.103024,36.693737 20.917782,37.000202 
	C20.917782,37.000202 21.000965,36.996975 20.733707,37.036407 
	C20.280296,37.382931 20.094141,37.690025 19.907986,37.997116 
	C19.907986,37.997116 19.976048,37.989155 19.667143,38.083374 
	C18.888792,39.113144 18.419346,40.048695 17.949900,40.984245 
	C17.949898,40.984245 18.003933,41.003078 17.740202,41.049633 
	C17.297209,41.395611 17.117945,41.695034 16.938681,41.994457 
	C16.938681,41.994457 16.996105,42.003460 16.696892,42.101036 
	C16.239630,42.796104 16.081581,43.393600 15.923532,43.991096 
	C9.774429,52.465221 5.802526,61.939018 2.999193,71.963982 
	C2.719514,72.964142 2.013737,73.845154 1.252858,74.390732 
	C1.000000,49.739300 1.000000,25.478598 1.000000,1.000000 
	C25.353794,1.000000 49.708241,1.000000 74.531342,1.000000 
z"/>
<path fill="#000000" opacity="1.000000" stroke="none" 
	d="
M441.468658,513.000000 
	C442.196259,512.040466 443.260468,510.798523 444.610321,510.167572 
	C452.958649,506.264954 461.431793,502.626556 469.746674,498.655823 
	C479.344208,494.072632 486.007202,485.905609 492.724030,478.174683 
	C501.417053,468.169128 506.868530,456.120331 510.910614,443.520996 
	C511.744080,440.922943 511.900177,438.107544 512.684204,435.696167 
	C513.000000,461.591095 513.000000,487.182159 513.000000,513.000000 
	C489.312927,513.000000 465.625122,513.000000 441.468658,513.000000 
z"/>
<path fill="#000000" opacity="1.000000" stroke="none" 
	d="
M0.999994,441.468658 
	C1.866398,442.058350 3.197863,442.989624 3.527147,444.194733 
	C6.750658,455.992340 12.141077,466.684967 19.710800,476.250366 
	C31.121227,490.669098 44.952831,501.857300 62.544022,507.984497 
	C66.319733,509.299591 69.979904,510.946442 73.346649,512.720215 
	C49.073139,513.000000 25.146275,513.000000 1.000000,513.000000 
	C1.000000,489.312897 1.000000,465.625092 0.999994,441.468658 
z"/>
<path fill="#070203" opacity="1.000000" stroke="none" 
	d="
M425.049744,268.891754 
	C421.342682,267.187653 418.056091,265.034027 414.488129,264.351715 
	C402.223816,262.006531 389.729736,260.740234 377.590759,257.913788 
	C371.440216,256.481720 364.627533,253.833359 360.294159,249.536423 
	C352.269836,241.579636 345.413696,232.148987 345.706512,219.818634 
	C345.769684,217.158081 347.126526,214.515839 347.976898,211.894180 
	C348.222015,211.138702 349.282623,210.321503 349.116608,209.808624 
	C347.131226,203.674789 351.824799,200.652832 355.118927,197.205276 
	C358.548065,193.616394 362.480225,190.507965 366.195984,187.193436 
	C366.443726,186.972443 366.693237,186.673615 366.989410,186.598602 
	C372.241058,185.268570 377.489410,182.923309 382.759613,182.869553 
	C395.194458,182.742752 407.638062,183.798706 420.084564,184.142761 
	C422.017609,184.196213 424.841064,183.617661 425.767395,182.292786 
	C428.082092,178.982407 430.825012,179.455185 433.701935,180.398071 
	C436.640350,181.361130 439.727692,182.237381 439.262451,186.694977 
	C439.054321,188.688904 440.576538,190.800812 440.823578,192.916382 
	C441.608063,199.635132 442.289276,206.371872 442.762115,213.119064 
	C443.099091,217.928070 443.324738,222.781647 443.049835,227.583832 
	C442.866119,230.792160 443.889832,235.527405 439.126617,236.090118 
	C434.704163,236.612549 432.753357,232.642517 431.073486,229.118454 
	C427.662567,221.962830 424.562531,214.631271 420.663544,207.752426 
	C419.444702,205.602036 416.213409,204.332291 413.649048,203.277542 
	C411.074371,202.218536 408.016174,202.320740 405.461090,201.231125 
	C397.668030,197.907761 390.183289,198.744156 382.742889,202.167404 
	C380.474365,203.211121 378.219025,204.283798 375.964966,205.358551 
	C372.129028,207.187485 367.933716,208.346191 367.169434,213.744064 
	C366.217926,220.464386 365.065369,227.355484 369.586060,232.967453 
	C375.252869,240.002197 382.477234,244.697205 392.111725,245.120834 
	C398.165344,245.387009 404.170197,246.772659 410.195526,247.665558 
	C411.511383,247.860550 412.922699,248.525345 414.117645,248.243332 
	C422.253235,246.323242 428.741943,250.545441 435.000671,254.313004 
	C442.474945,258.812256 447.772247,265.715546 451.319183,273.696228 
	C456.324158,284.957703 453.153717,292.493927 451.932892,301.947296 
	C449.514496,302.962830 447.430817,303.837830 445.347137,304.712830 
	C446.816498,305.914459 448.285858,307.116119 450.816620,309.185730 
	C446.677734,313.939087 442.452301,319.102875 437.804138,323.853027 
	C436.932648,324.743652 434.371033,323.980469 431.891388,323.980469 
	C432.907227,329.925171 428.003510,330.328674 424.006470,331.689178 
	C417.233521,333.994537 410.468872,336.326904 403.664825,338.537415 
	C395.983398,341.032990 388.323700,341.045807 380.622009,338.355713 
	C376.390198,336.877594 372.069183,335.477814 367.672089,334.699951 
	C363.256317,333.918762 358.897797,334.012695 354.977783,337.402710 
	C353.927063,338.311401 350.190063,337.488495 348.680084,336.249390 
	C342.688416,331.332733 341.123047,324.492981 341.202240,316.976166 
	C341.301117,307.587982 340.862854,298.194061 340.968994,288.806152 
	C341.024780,283.870941 341.569366,278.919189 342.233704,274.021118 
	C342.636139,271.054077 344.644012,270.789215 347.017365,272.226044 
	C350.921112,274.589325 356.483826,287.377655 356.034912,292.130737 
	C355.668213,296.012787 355.244110,300.084473 356.051086,303.810974 
	C356.553772,306.132294 359.113281,308.173523 361.091797,309.962036 
	C362.961487,311.652161 365.662964,312.498322 367.324341,314.327972 
	C371.842957,319.304230 376.866455,322.343567 383.851624,323.357330 
	C396.461426,325.187317 407.618439,323.445862 417.367462,314.722870 
	C423.012177,309.672241 429.198181,305.219025 434.741272,300.067291 
	C436.261017,298.654785 436.569183,295.735413 437.001709,293.426636 
	C437.298553,291.842102 436.675751,290.108673 436.763062,288.457611 
	C437.239166,279.454468 434.322388,272.509491 425.049744,268.891754 
z"/>
<path fill="#060102" opacity="1.000000" stroke="none" 
	d="
M217.533081,196.267883 
	C214.447922,195.994827 211.692490,196.035110 208.952026,195.851761 
	C206.076431,195.659378 201.993195,196.307526 200.613998,194.709747 
	C198.105789,191.804077 195.836487,188.317352 198.456512,183.248260 
	C203.140167,174.186554 203.837570,173.302856 213.961090,175.321198 
	C215.079803,175.544250 216.450439,175.820724 217.394348,175.391296 
	C223.889648,172.436172 230.462387,174.692474 237.002853,174.838699 
	C239.148407,174.886688 241.485611,175.113556 243.419586,174.401505 
	C253.235382,170.787430 261.235596,176.042053 269.639191,179.404953 
	C270.080292,179.581497 270.560760,179.900360 270.805573,180.289612 
	C273.321350,184.289978 267.857178,194.632217 263.158508,194.890640 
	C258.842590,195.128021 254.494659,195.208878 250.228073,195.824615 
	C242.836487,196.891327 242.301361,197.785309 243.081650,205.311249 
	C243.201553,206.467804 243.338608,207.622574 243.402527,208.194702 
	C241.220108,209.424469 239.322861,210.493530 237.425613,211.562607 
	C238.800949,212.974258 240.176285,214.385925 242.194077,216.457001 
	C241.577164,223.302765 240.866776,231.185883 240.170456,238.912766 
	C238.736694,240.185623 237.183929,241.564133 235.631165,242.942657 
	C236.891037,243.967392 238.150909,244.992111 239.410782,246.016846 
	C239.855148,245.926895 240.299500,245.836945 240.743866,245.746994 
	C240.743866,254.569321 239.007401,263.845398 241.165421,272.103790 
	C244.136566,283.473877 241.435577,294.842163 243.787308,306.014221 
	C245.928879,316.187958 249.798889,318.501434 260.035828,316.628204 
	C264.906097,315.737091 270.384674,315.897095 275.149811,317.192169 
	C284.232697,319.660614 292.656036,317.906555 301.094391,315.125366 
	C304.662292,313.949402 306.248016,310.879730 306.078461,307.251190 
	C305.892731,303.276886 305.166016,299.330933 304.851654,295.358643 
	C304.524750,291.227661 303.892975,287.026215 304.317932,282.951843 
	C305.009308,276.322815 308.474274,273.898376 314.766571,274.690857 
	C319.333832,275.266113 322.036072,280.092316 322.003601,285.675537 
	C321.962616,292.720642 323.087036,299.774017 323.017517,306.817017 
	C322.949951,313.662628 323.458130,321.098389 320.962708,327.138519 
	C319.178284,331.457703 314.980774,336.724915 308.508301,337.119476 
	C304.693085,337.352051 300.853180,337.362244 297.065338,337.815186 
	C292.173248,338.400146 287.335999,339.436554 282.447144,340.058807 
	C280.194336,340.345490 277.839447,340.370483 275.592712,340.062744 
	C269.007141,339.160797 262.480896,337.736298 255.875168,337.104431 
	C251.963913,336.730347 247.947800,337.496826 243.976257,337.700226 
	C232.728928,338.276276 221.476501,339.311035 210.233444,339.223145 
	C202.199097,339.160370 198.838425,331.899597 202.866852,324.903748 
	C205.885223,319.661987 210.591019,316.848694 216.369492,315.451019 
	C222.675659,313.925751 224.257782,311.944855 224.820969,305.531128 
	C224.850098,305.199493 224.879837,304.864349 224.864563,304.532898 
	C223.711472,279.501678 222.488297,254.473450 221.433228,229.438126 
	C221.077133,220.988220 221.378418,212.506744 220.881775,204.068970 
	C220.729980,201.490128 218.919983,199.008881 217.533081,196.267883 
z"/>
<path fill="#080203" opacity="1.000000" stroke="none" 
	d="
M96.037666,176.406631 
	C112.455452,177.925888 128.368942,177.753281 144.408875,176.359085 
	C153.539551,175.565445 162.919464,177.309586 172.157806,178.211411 
	C177.450806,178.728104 180.851852,182.076141 181.221725,187.322922 
	C182.144943,200.419250 182.821884,213.541718 183.125549,226.664612 
	C183.178329,228.945404 181.330688,231.647537 179.647675,233.511002 
	C176.341858,237.171295 174.119247,236.268661 172.665787,231.526169 
	C172.189346,229.971619 170.486893,228.804596 169.390106,227.424576 
	C168.564377,226.385559 167.497025,225.397751 167.082809,224.198685 
	C165.786407,220.445938 165.052658,216.477112 163.531921,212.829193 
	C161.713577,208.467346 161.702515,204.644638 164.339798,200.557220 
	C167.497543,195.663132 166.389450,192.272003 161.171158,189.633087 
	C155.985397,187.010620 150.531769,187.016205 145.114349,188.688660 
	C140.507614,190.110855 134.666489,190.686920 131.866623,193.847610 
	C129.474258,196.548309 130.230835,202.394028 130.293152,206.838821 
	C130.418839,215.804855 131.216782,224.760956 131.365601,233.727341 
	C131.499893,241.818985 131.138931,249.918869 130.994568,258.015106 
	C130.976913,259.005615 130.519684,260.330383 130.991135,260.934235 
	C135.340256,266.504913 133.144684,273.120361 133.992447,279.223328 
	C134.161377,280.439392 133.101852,281.855804 132.504242,283.130798 
	C132.321365,283.520996 131.443741,283.780945 131.469040,284.044373 
	C131.939941,288.949005 132.368820,293.864899 133.105331,298.733215 
	C133.393341,300.637085 134.634933,302.380371 135.062531,304.282196 
	C136.923599,312.559479 139.703537,314.898773 148.059586,315.147858 
	C150.879303,315.231903 153.733841,315.355011 156.495590,315.871399 
	C159.960495,316.519287 162.901520,317.891724 162.396225,322.397247 
	C161.724457,328.387299 158.999924,331.943420 154.885391,332.350098 
	C140.680725,333.754028 126.507172,335.535919 112.279388,336.615204 
	C105.545479,337.126007 98.696495,336.611298 91.937653,336.078735 
	C88.906914,335.839905 86.116501,334.229401 86.065353,330.413055 
	C86.019394,326.984100 88.052773,325.068848 90.108673,322.371185 
	C95.015022,315.933289 101.573143,317.384125 107.584442,315.972382 
	C112.402061,314.840973 116.100075,308.693726 115.678299,302.068481 
	C115.382164,297.416901 114.533485,292.786835 114.462379,288.139038 
	C114.410049,284.718719 115.208931,281.284302 115.644943,277.858246 
	C115.768654,276.886139 116.434273,275.577515 116.029182,275.007019 
	C112.439545,269.951508 115.142715,264.678558 115.173599,259.488220 
	C115.200180,255.022888 114.431213,250.555527 114.403603,246.086639 
	C114.334000,234.820221 114.435822,223.551834 114.569061,212.285446 
	C114.626083,207.463058 115.329567,202.611023 114.937874,197.838211 
	C114.770782,195.802170 112.946129,192.778168 111.200783,192.184540 
	C102.262741,189.144562 93.054749,187.768921 83.800217,191.099762 
	C77.462265,193.380875 74.597786,197.669708 74.743324,204.460129 
	C74.869225,210.334015 75.777626,216.304642 74.993423,222.048660 
	C74.364182,226.657639 71.899834,231.080978 69.797997,235.365005 
	C69.413322,236.149078 66.581116,236.463486 65.387909,235.905609 
	C64.285095,235.389954 63.519157,233.486084 63.219826,232.064163 
	C62.664307,229.425262 62.596249,226.686798 62.239014,224.001251 
	C62.131165,223.190491 61.542351,222.426346 61.506645,221.626007 
	C61.102779,212.573990 60.477844,203.516602 60.555599,194.466202 
	C60.584496,191.103104 61.926189,187.588806 63.323792,184.433395 
	C66.333611,177.637970 70.261551,176.028625 77.716187,176.579773 
	C83.641472,177.017822 89.635780,176.522171 96.037666,176.406631 
z"/>
<path fill="#EC1D4C" opacity="1.000000" stroke="none" 
	d="
M23.883461,33.306587 
	C29.423500,27.787411 35.344635,22.378847 41.619064,16.927551 
	C37.350327,22.185406 32.801655,27.553934 28.025154,32.711464 
	C27.329121,33.463020 25.545126,33.206997 23.883461,33.306587 
z"/>
<path fill="#EC1D4C" opacity="1.000000" stroke="none" 
	d="
M18.248817,40.850338 
	C18.419346,40.048695 18.888792,39.113144 19.660484,38.049767 
	C19.491062,38.853436 19.019396,39.784935 18.248817,40.850338 
z"/>
<path fill="#EC1D4C" opacity="1.000000" stroke="none" 
	d="
M42.249306,16.918310 
	C42.717991,16.303911 43.520374,15.658154 44.647858,14.968214 
	C44.176308,15.578340 43.379658,16.232645 42.249306,16.918310 
z"/>
<path fill="#EC1D4C" opacity="1.000000" stroke="none" 
	d="
M22.181986,35.833832 
	C22.178648,35.274570 22.451195,34.568981 22.962357,33.681969 
	C22.953272,34.229530 22.705572,34.958523 22.181986,35.833832 
z"/>
<path fill="#EC1D4C" opacity="1.000000" stroke="none" 
	d="
M16.122025,43.776611 
	C16.081581,43.393600 16.239630,42.796104 16.686691,42.073822 
	C16.757307,42.486729 16.538910,43.024426 16.122025,43.776611 
z"/>
<path fill="#EC1D4C" opacity="1.000000" stroke="none" 
	d="
M45.226025,14.895754 
	C45.417187,14.639718 45.897667,14.312770 46.697639,13.942719 
	C46.516537,14.208024 46.015942,14.516434 45.226025,14.895754 
z"/>
<path fill="#EC1D4C" opacity="1.000000" stroke="none" 
	d="
M47.199242,13.885269 
	C47.388077,13.635338 47.861347,13.304521 48.646244,12.917538 
	C48.466469,13.175710 47.975071,13.490047 47.199242,13.885269 
z"/>
<path fill="#EC1D4C" opacity="1.000000" stroke="none" 
	d="
M20.121065,37.850121 
	C20.094141,37.690025 20.280296,37.382931 20.732086,36.994816 
	C20.776529,37.176903 20.555338,37.440014 20.121065,37.850121 
z"/>
<path fill="#EC1D4C" opacity="1.000000" stroke="none" 
	d="
M17.149086,41.856735 
	C17.117945,41.695034 17.297209,41.395611 17.736069,41.021324 
	C17.783607,41.203976 17.571550,41.461494 17.149086,41.856735 
z"/>
<path fill="#EC1D4C" opacity="1.000000" stroke="none" 
	d="
M21.124403,36.845242 
	C21.103024,36.693737 21.288263,36.387272 21.736427,35.992981 
	C21.776577,36.166866 21.553801,36.428574 21.124403,36.845242 
z"/>
</svg>