<svg width="356" height="356" viewBox="0 0 356 356" fill="none" xmlns="http://www.w3.org/2000/svg">
<g filter="url(#filter0_d_2403_84)">
<mask id="path-1-inside-1_2403_84" fill="white">
<path d="M218.893 326.616C221.18 335.152 216.12 344.003 207.41 345.497C174.388 351.16 140.306 347.185 109.315 333.87C73.4048 318.442 43.735 291.373 25.0858 257.026C6.4367 222.678 -0.105556 183.052 6.51324 144.533C13.132 106.014 32.5264 70.8449 61.5712 44.6928C90.6161 18.5407 127.62 2.92876 166.62 0.372551C205.62 -2.18366 244.345 8.46477 276.555 30.602C308.765 52.7392 332.583 85.076 344.173 122.402C354.176 154.615 354.567 188.926 345.483 221.176C343.087 229.681 333.755 233.789 325.506 230.622L207.316 185.253C195.111 180.568 182.744 191.704 186.127 204.332L218.893 326.616Z"/>
</mask>
<path d="M218.893 326.616C221.18 335.152 216.12 344.003 207.41 345.497C174.388 351.16 140.306 347.185 109.315 333.87C73.4048 318.442 43.735 291.373 25.0858 257.026C6.4367 222.678 -0.105556 183.052 6.51324 144.533C13.132 106.014 32.5264 70.8449 61.5712 44.6928C90.6161 18.5407 127.62 2.92876 166.62 0.372551C205.62 -2.18366 244.345 8.46477 276.555 30.602C308.765 52.7392 332.583 85.076 344.173 122.402C354.176 154.615 354.567 188.926 345.483 221.176C343.087 229.681 333.755 233.789 325.506 230.622L207.316 185.253C195.111 180.568 182.744 191.704 186.127 204.332L218.893 326.616Z" fill="#5E5E5E"/>
<path d="M218.893 326.616C221.18 335.152 216.12 344.003 207.41 345.497C174.388 351.16 140.306 347.185 109.315 333.87C73.4048 318.442 43.735 291.373 25.0858 257.026C6.4367 222.678 -0.105556 183.052 6.51324 144.533C13.132 106.014 32.5264 70.8449 61.5712 44.6928C90.6161 18.5407 127.62 2.92876 166.62 0.372551C205.62 -2.18366 244.345 8.46477 276.555 30.602C308.765 52.7392 332.583 85.076 344.173 122.402C354.176 154.615 354.567 188.926 345.483 221.176C343.087 229.681 333.755 233.789 325.506 230.622L207.316 185.253C195.111 180.568 182.744 191.704 186.127 204.332L218.893 326.616Z" stroke="#7C7C7C" stroke-width="26" mask="url(#path-1-inside-1_2403_84)"/>
</g>
<g filter="url(#filter1_d_2403_84)">
<circle cx="178.5" cy="173.5" r="60.5" fill="white"/>
<circle cx="178.5" cy="173.5" r="52.5" stroke="#ACACAC" stroke-width="16"/>
</g>
<circle cx="178.5" cy="173.5" r="27.5" fill="#D6D6D6"/>
<defs>
<filter id="filter0_d_2403_84" x="-0.000244141" y="-0.00012207" width="356" height="356" filterUnits="userSpaceOnUse" color-interpolation-filters="sRGB">
<feFlood flood-opacity="0" result="BackgroundImageFix"/>
<feColorMatrix in="SourceAlpha" type="matrix" values="0 0 0 0 0 0 0 0 0 0 0 0 0 0 0 0 0 0 127 0" result="hardAlpha"/>
<feOffset dy="4"/>
<feGaussianBlur stdDeviation="2"/>
<feComposite in2="hardAlpha" operator="out"/>
<feColorMatrix type="matrix" values="0 0 0 0 0 0 0 0 0 0 0 0 0 0 0 0 0 0 0.25 0"/>
<feBlend mode="normal" in2="BackgroundImageFix" result="effect1_dropShadow_2403_84"/>
<feBlend mode="normal" in="SourceGraphic" in2="effect1_dropShadow_2403_84" result="shape"/>
</filter>
<filter id="filter1_d_2403_84" x="114" y="113" width="129" height="129" filterUnits="userSpaceOnUse" color-interpolation-filters="sRGB">
<feFlood flood-opacity="0" result="BackgroundImageFix"/>
<feColorMatrix in="SourceAlpha" type="matrix" values="0 0 0 0 0 0 0 0 0 0 0 0 0 0 0 0 0 0 127 0" result="hardAlpha"/>
<feOffset dy="4"/>
<feGaussianBlur stdDeviation="2"/>
<feComposite in2="hardAlpha" operator="out"/>
<feColorMatrix type="matrix" values="0 0 0 0 0 0 0 0 0 0 0 0 0 0 0 0 0 0 0.25 0"/>
<feBlend mode="normal" in2="BackgroundImageFix" result="effect1_dropShadow_2403_84"/>
<feBlend mode="normal" in="SourceGraphic" in2="effect1_dropShadow_2403_84" result="shape"/>
</filter>
</defs>
</svg>
